   $$  $$ $$$$$  $$$$$  $$$$$
   $$  $$ $$  $$ $$  $$ $$  $$
   $$$$$$ $$  $$ $$$$   $$$$ 
   $$  $$ $$  $$ $$ $$  $$ $$
   $$  $$ $$$$$  $$  $$ $$  $$
    HD DESI ROCKERS RELEASES

General
Complete name                    : VanHelsing2004[DvdRip]DualAudio[Eng-Hindi]-ahl07.mkv
Format                           : Matroska
File size                        : 884 MiB
Duration                         : 2h 6mn
Overall bit rate                 : 980 Kbps
Writing application              : AVI-Mux GUI 1.17.8.3, Feb 16 201019:42:50
Writing library                  : matroska muxer by Alexander Noe, build date Feb 16 2010

Video
ID                               : 1
Format                           : V_MS/VFW/FOURCC
Codec ID                         : V_MS/VFW/FOURCC
Duration                         : 2h 6mn
Bit rate                         : 608 Kbps
Width                            : 616 pixels
Height                           : 338 pixels
Display aspect ratio             : 16:9
Frame rate                       : 25.000 fps
Bits/(Pixel*Frame)               : 0.117
Stream size                      : 549 MiB (62%)
Language                         : English

Audio #1
ID                               : 2
Format                           : MPEG Audio
Format version                   : Version 1
Format profile                   : Layer 3
Mode                             : Joint stereo
Mode extension                   : MS Stereo
Codec ID                         : A_MPEG/L3
Codec ID/Hint                    : MP3
Duration                         : 2h 6mn
Bit rate mode                    : Constant
Bit rate                         : 224 Kbps
Channel(s)                       : 2 channels
Sampling rate                    : 44.1 KHz
Stream size                      : 202 MiB (23%)
Writing library                  : LAME3.98.2
Language                         : Hindi

Audio #2
ID                               : 3
Format                           : MPEG Audio
Format version                   : Version 1
Format profile                   : Layer 3
Mode                             : Joint stereo
Mode extension                   : MS Stereo
Codec ID                         : A_MPEG/L3
Codec ID/Hint                    : MP3
Duration                         : 2h 6mn
Bit rate mode                    : Constant
Bit rate                         : 128 Kbps
Channel(s)                       : 2 channels
Sampling rate                    : 48.0 KHz
Stream size                      : 116 MiB (13%)
Language                         : English


Ripped By :- ahl07
Piratebay Profile :- http://piratebay.org/user/ahl07
HD Rockers All Torrents :- http://thepiratebay.org/tag/HD+DESI+ROCKERS+RELEASES


INITIAL SEEDING time will be 2:00AM - 8:00AM IST
Enjoy The Movie and below are The SCREENS


SCREENS
 
http://img576.imageshack.us/img576/4483/46100277.jpg 
http://img248.imageshack.us/img248/7373/74952919.jpg 
http://img716.imageshack.us/img716/1491/67057296.jpg 
http://img208.imageshack.us/img208/4025/33397124.jpg 
http://img341.imageshack.us/img341/2930/51657648.jpg 
http://img684.imageshack.us/img684/7194/52968160.jpg 
http://img257.imageshack.us/img257/3729/45211019.jpg